<svg width="24" height="24" viewBox="0 0 24 24" fill="none" xmlns="http://www.w3.org/2000/svg">
<path d="M14.5263 8.97374C14.8558 9.30324 15.1299 9.75666 15.3485 10.334C15.567 10.9113 15.6408 11.4647 15.5698 11.9942C15.5698 12.1209 15.5315 12.2239 15.455 12.3032C15.3784 12.3827 15.2764 12.4225 15.149 12.4225C15.0219 12.4225 14.9172 12.3827 14.835 12.3032C14.7527 12.2239 14.7115 12.1209 14.7115 11.9942C14.7889 11.5104 14.757 11.0581 14.616 10.6372C14.475 10.2162 14.2479 9.85466 13.9345 9.55249C13.6325 9.23933 13.2639 9.01433 12.8288 8.87749C12.3938 8.74083 11.9414 8.71758 11.4718 8.80774C11.3509 8.81191 11.2429 8.77891 11.1478 8.70874C11.0526 8.63841 10.9987 8.53966 10.986 8.41249C10.9732 8.28533 11.0047 8.17424 11.0805 8.07924C11.1564 7.98408 11.2548 7.93441 11.3758 7.93024C11.9253 7.83358 12.4958 7.89133 13.0873 8.10349C13.6786 8.31566 14.1583 8.60574 14.5263 8.97374ZM12.077 5.84624C11.6159 5.84624 11.1585 5.87241 10.705 5.92474C10.2517 5.97708 9.80277 6.06566 9.35827 6.19049C9.23743 6.22166 9.12302 6.20966 9.01502 6.15449C8.90719 6.09933 8.83085 6.02174 8.78602 5.92174C8.74102 5.80891 8.74535 5.70141 8.79902 5.59924C8.85268 5.49724 8.93802 5.43058 9.05502 5.39924C9.53285 5.26158 10.0223 5.16066 10.5233 5.09649C11.0244 5.03216 11.5316 4.99999 12.0448 4.99999C14.0621 4.99999 15.9194 5.52541 17.6168 6.57624C19.3141 7.62708 20.6308 9.04224 21.5668 10.8217C21.6223 10.9371 21.6656 11.0472 21.6968 11.1522C21.7279 11.2572 21.7435 11.3732 21.7435 11.5C21.7435 11.6268 21.7289 11.7427 21.6998 11.8477C21.6704 11.9527 21.628 12.0629 21.5725 12.1782C21.2384 12.8422 20.838 13.454 20.3715 14.0135C19.905 14.5728 19.3859 15.0869 18.814 15.5557C18.7162 15.6331 18.615 15.6619 18.5105 15.6422C18.406 15.6226 18.3155 15.5678 18.239 15.478C18.1685 15.3882 18.1426 15.2938 18.1613 15.195C18.1798 15.0962 18.2361 15.0081 18.3303 14.9307C18.8988 14.4642 19.4101 13.945 19.8643 13.373C20.3184 12.8008 20.6966 12.1765 20.9988 11.5C20.1679 9.77049 18.9529 8.39583 17.3535 7.37599C15.7542 6.35616 13.9954 5.84624 12.077 5.84624ZM12 18C10.0074 18 8.18202 17.4704 6.52402 16.4112C4.86618 15.3521 3.53344 13.9605 2.52577 12.2365C2.44494 12.1272 2.38819 12.0112 2.35552 11.8887C2.32285 11.7664 2.30652 11.6371 2.30652 11.5007C2.30652 11.3644 2.32502 11.2358 2.36202 11.115C2.39919 10.9942 2.4531 10.877 2.52377 10.7635C2.9551 10.0247 3.43269 9.33066 3.95652 8.68149C4.48035 8.03233 5.08677 7.45558 5.77577 6.95124L3.16102 4.34749C3.08102 4.26283 3.03877 4.16441 3.03427 4.05224C3.02977 3.94008 3.07052 3.83758 3.15652 3.74474C3.25352 3.65208 3.35669 3.60574 3.46602 3.60574C3.57535 3.60574 3.67644 3.65208 3.76927 3.74474L20.2025 20.1782C20.2785 20.2577 20.3183 20.3511 20.3218 20.4582C20.3253 20.5656 20.2855 20.6662 20.2025 20.7602C20.1107 20.8556 20.0105 20.9032 19.902 20.9032C19.7934 20.9032 19.6927 20.8568 19.6 20.764L16.0128 17.2052C15.3843 17.4971 14.7325 17.7025 14.0575 17.8215C13.3827 17.9405 12.6969 18 12 18ZM6.36152 7.55374C5.61669 8.04191 4.95944 8.61974 4.38977 9.28724C3.8201 9.95474 3.35602 10.6923 2.99752 11.5C3.84452 13.2457 5.08027 14.6244 6.70477 15.6362C8.32944 16.6479 10.1134 17.1537 12.0565 17.1537C12.6394 17.1537 13.2119 17.1203 13.7743 17.0535C14.3368 16.9867 14.8779 16.8321 15.3975 16.5897L13.5565 14.7447C13.3184 14.8879 13.0685 14.9791 12.807 15.0182C12.5455 15.0574 12.2765 15.077 12 15.077C11.0082 15.077 10.1641 14.7287 9.46777 14.0322C8.77127 13.3359 8.42302 12.4918 8.42302 11.5C8.42302 11.2235 8.44644 10.9566 8.49327 10.6992C8.5401 10.4421 8.62743 10.1902 8.75527 9.94349L6.36152 7.55374Z" fill="black"/>
</svg>
