<svg width="24" height="24" viewBox="0 0 24 24" fill="none" xmlns="http://www.w3.org/2000/svg">
<path d="M12.0045 15.1538C13.0207 15.1538 13.8829 14.7981 14.5913 14.0868C15.2996 13.3754 15.6538 12.5117 15.6538 11.4955C15.6538 10.4793 15.2981 9.61708 14.5868 8.90875C13.8754 8.20042 13.0117 7.84625 11.9955 7.84625C10.9793 7.84625 10.1171 8.20192 9.40876 8.91325C8.70043 9.62458 8.34626 10.4883 8.34626 11.5045C8.34626 12.5207 8.70193 13.3829 9.41326 14.0913C10.1246 14.7996 10.9883 15.1538 12.0045 15.1538ZM12 14.2C11.25 14.2 10.6125 13.9375 10.0875 13.4125C9.56251 12.8875 9.30001 12.25 9.30001 11.5C9.30001 10.75 9.56251 10.1125 10.0875 9.5875C10.6125 9.0625 11.25 8.8 12 8.8C12.75 8.8 13.3875 9.0625 13.9125 9.5875C14.4375 10.1125 14.7 10.75 14.7 11.5C14.7 12.25 14.4375 12.8875 13.9125 13.4125C13.3875 13.9375 12.75 14.2 12 14.2ZM12 18C10.023 18 8.20985 17.4769 6.56051 16.4308C4.91118 15.3846 3.57885 14.0128 2.56351 12.3155C2.48018 12.1782 2.42085 12.0428 2.38551 11.9095C2.35035 11.7762 2.33276 11.6393 2.33276 11.499C2.33276 11.3587 2.35035 11.2222 2.38551 11.0895C2.42085 10.9568 2.48018 10.8218 2.56351 10.6845C3.57885 8.98717 4.91118 7.61542 6.56051 6.56925C8.20985 5.52308 10.023 5 12 5C13.977 5 15.7902 5.52308 17.4395 6.56925C19.0888 7.61542 20.4212 8.98717 21.4365 10.6845C21.5198 10.8218 21.5792 10.9572 21.6145 11.0905C21.6497 11.2238 21.6673 11.3607 21.6673 11.501C21.6673 11.6413 21.6497 11.7778 21.6145 11.9105C21.5792 12.0432 21.5198 12.1782 21.4365 12.3155C20.4212 14.0128 19.0888 15.3846 17.4395 16.4308C15.7902 17.4769 13.977 18 12 18ZM12 17C13.8833 17 15.6125 16.5042 17.1875 15.5125C18.7625 14.5208 19.9667 13.1833 20.8 11.5C19.9667 9.81667 18.7625 8.47917 17.1875 7.4875C15.6125 6.49583 13.8833 6 12 6C10.1167 6 8.38751 6.49583 6.81251 7.4875C5.23751 8.47917 4.03335 9.81667 3.20001 11.5C4.03335 13.1833 5.23751 14.5208 6.81251 15.5125C8.38751 16.5042 10.1167 17 12 17Z" fill="black"/>
</svg>
