<svg width="45" height="44" viewBox="0 0 45 44" fill="none" xmlns="http://www.w3.org/2000/svg">
<path d="M22.5 0C34.6503 0 44.5 9.84974 44.5 22C44.5 34.1503 34.6503 44 22.5 44C10.3497 44 0.5 34.1503 0.5 22C0.5 9.84974 10.3497 0 22.5 0ZM22.3193 9C15.3011 9 9.59082 14.831 9.59082 22C9.59082 29.169 15.3011 35 22.3193 35C26.4477 35 29.647 33.6043 31.8301 30.8555C34.4667 27.5349 34.9874 22.8942 34.3369 19.7393L34.2441 19.291L21.7656 19.2734V25.126H28.1572C27.1522 27.5259 25.0189 28.9345 22.3193 28.9346C18.5757 28.9346 15.5283 25.824 15.5283 22C15.5283 18.176 18.5757 15.0654 22.3193 15.0654C23.9339 15.0655 25.5014 15.6589 26.7334 16.7363L27.1221 17.0762L31.3193 12.7891L30.8916 12.3887C28.5422 10.203 25.4987 9.00002 22.3193 9Z" fill="#7FC859"/>
</svg>
