<svg width="136" height="43" viewBox="0 0 136 43" fill="none" xmlns="http://www.w3.org/2000/svg">
<path d="M125.5 21.5C125.5 15.1487 120.351 10 114 10H5.5C2.73858 10 0.5 7.76142 0.5 5C0.5 2.23858 2.73858 0 5.5 0H114C125.874 3.54365e-08 135.5 9.62588 135.5 21.5C135.5 33.3741 125.874 43 114 43H63.0586C60.2972 43 58.0586 40.7614 58.0586 38C58.0586 35.2386 60.2972 33 63.0586 33H114C120.351 33 125.5 27.8513 125.5 21.5Z" fill="black"/>
<path d="M10.5 38C10.5 40.7614 8.26142 43 5.5 43C2.73858 43 0.5 40.7614 0.5 38C0.5 35.2386 2.73858 33 5.5 33C8.26142 33 10.5 35.2386 10.5 38Z" fill="black"/>
<path d="M24.8333 38C24.8333 40.7614 22.5948 43 19.8333 43C17.0719 43 14.8333 40.7614 14.8333 38C14.8333 35.2386 17.0719 33 19.8333 33C22.5948 33 24.8333 35.2386 24.8333 38Z" fill="black"/>
<path d="M39.1667 38C39.1667 40.7614 36.9281 43 34.1667 43C31.4052 43 29.1667 40.7614 29.1667 38C29.1667 35.2386 31.4052 33 34.1667 33C36.9281 33 39.1667 35.2386 39.1667 38Z" fill="black"/>
<path d="M53.5 38C53.5 40.7614 51.2614 43 48.5 43C45.7386 43 43.5 40.7614 43.5 38C43.5 35.2386 45.7386 33 48.5 33C51.2614 33 53.5 35.2386 53.5 38Z" fill="black"/>
</svg>
