<svg width="121" height="38" viewBox="0 0 121 38" fill="none" xmlns="http://www.w3.org/2000/svg">
<path d="M101.088 -0.558479C111.89 -0.558449 120.646 8.19826 120.646 19.0001C120.646 29.8019 111.89 38.5587 101.088 38.5587H56.1387C53.3777 38.5583 51.1389 36.3197 51.1387 33.5587C51.1389 30.7978 53.3778 28.5591 56.1387 28.5587H101.088C106.367 28.5587 110.646 24.2792 110.646 19.0001C110.646 13.721 106.367 9.44155 101.088 9.44152H5.35254C2.5914 9.44132 0.352725 7.20266 0.352539 4.44152C0.352539 1.68022 2.59128 -0.558281 5.35254 -0.558479H101.088Z" fill="#7FC859"/>
<path d="M5.35254 29.1466C7.78905 29.1466 9.76458 31.1222 9.76465 33.5587C9.76465 35.9953 7.78909 37.9708 5.35254 37.9708C2.91617 37.9706 0.941406 35.9951 0.941406 33.5587C0.941472 31.1223 2.91621 29.1468 5.35254 29.1466Z" fill="#7FC859"/>
<path d="M18 29.1466C20.4365 29.1466 22.412 31.1222 22.4121 33.5587C22.4121 35.9953 20.4366 37.9708 18 37.9708C15.5635 37.9708 13.5879 35.9953 13.5879 33.5587C13.588 31.1222 15.5635 29.1466 18 29.1466Z" fill="#7FC859"/>
<path d="M30.6475 29.1466C33.0838 29.1468 35.0585 31.1223 35.0586 33.5587C35.0586 35.9951 33.0839 37.9706 30.6475 37.9708C28.2109 37.9708 26.2354 35.9953 26.2354 33.5587C26.2354 31.1222 28.211 29.1466 30.6475 29.1466Z" fill="#7FC859"/>
<path d="M43.2939 29.1466C45.7305 29.1466 47.706 31.1222 47.7061 33.5587C47.7061 35.9953 45.7305 37.9708 43.2939 37.9708C40.8575 37.9707 38.8828 35.9952 38.8828 33.5587C38.8829 31.1223 40.8575 29.1467 43.2939 29.1466Z" fill="#7FC859"/>
</svg>
